<?xml version="1.0" standalone="no"?><!DOCTYPE svg PUBLIC "-//W3C//DTD SVG 1.1//EN" "http://www.w3.org/Graphics/SVG/1.1/DTD/svg11.dtd"><svg t="1595827854416" class="icon" viewBox="0 0 1024 1024" version="1.1" xmlns="http://www.w3.org/2000/svg" p-id="2900" xmlns:xlink="http://www.w3.org/1999/xlink" width="200" height="200"><defs><style type="text/css"></style></defs><path d="M0 0m102.4 0l819.2 0q102.4 0 102.4 102.4l0 819.2q0 102.4-102.4 102.4l-819.2 0q-102.4 0-102.4-102.4l0-819.2q0-102.4 102.4-102.4Z" fill="#E5E5B2" p-id="2901"></path><path d="M133.12 348.16l378.88-204.8v430.08z" fill="#490A01" p-id="2902"></path><path d="M890.88 348.16L512 143.36v430.08z" fill="#490A01" p-id="2903"></path><path d="M225.28 245.76h563.2v440.32H225.28z" fill="#EBD6B9" p-id="2904"></path><path d="M245.76 296.96h266.24v337.92H245.76z" fill="#FFFFFF" p-id="2905"></path><path d="M133.12 348.16l378.88 225.28v256H133.12V348.16z" fill="#DD4A31" p-id="2906"></path><path d="M890.88 348.16L512 573.44v256h378.88V348.16z" fill="#DD4A31" p-id="2907"></path><path d="M153.6 419.84l358.4 215.04v276.48H153.6V419.84z" fill="#FFFFFF" opacity=".3" p-id="2908"></path><path d="M153.6 419.84l358.4-204.8v419.84z" fill="#FFFFFF" opacity=".3" p-id="2909"></path><path d="M286.72 296.96h440.32v10.24H286.72z" fill="#4A0B01" p-id="2910"></path><path d="M286.72 348.16h440.32v10.24H286.72z" fill="#4A0B01" p-id="2911"></path></svg>